<svg width="1267" height="95" viewBox="0 0 1267 95" fill="none" xmlns="http://www.w3.org/2000/svg">
<g filter="url(#filter0_d_995_61491)">
<path d="M76.827 12.28H65.307V0.759995H76.827V12.28ZM102.811 38.264H91.291V26.744H102.811V38.264ZM63.771 12.28H52.379V0.759995H63.771V12.28ZM76.827 25.208H65.307V13.816H76.827V25.208ZM102.811 51.192H91.291V39.8H102.811V51.192ZM63.771 25.208H52.379V13.816H63.771V25.208ZM76.827 38.264H65.307V26.744H76.827V38.264ZM102.811 64.12H91.291V52.728H102.811V64.12ZM102.811 77.176H91.291V65.656H102.811V77.176ZM63.771 38.264H52.379V26.744H63.771V38.264ZM76.827 51.192H65.307V39.8H76.827V51.192ZM89.755 64.12H78.363V52.728H89.755V64.12ZM24.859 12.28H13.467V0.759995H24.859V12.28ZM89.755 77.176H78.363V65.656H89.755V77.176ZM102.811 90.104H91.291V78.712H102.811V90.104ZM63.771 51.192H52.379V39.8H63.771V51.192ZM76.827 64.12H65.307V52.728H76.827V64.12ZM11.931 12.28H0.410972V0.759995H11.931V12.28ZM24.859 25.208H13.467V13.816H24.859V25.208ZM37.915 38.264H26.395V26.744H37.915V38.264ZM89.755 90.104H78.363V78.712H89.755V90.104ZM11.931 25.208H0.410972V13.816H11.931V25.208ZM24.859 38.264H13.467V26.744H24.859V38.264ZM37.915 51.192H26.395V39.8H37.915V51.192ZM50.843 64.12H39.451V52.728H50.843V64.12ZM24.859 51.192H13.467V39.8H24.859V51.192ZM37.915 64.12H26.395V52.728H37.915V64.12ZM50.843 77.176H39.451V65.656H50.843V77.176ZM37.915 77.176H26.395V65.656H37.915V77.176ZM24.859 64.12H13.467V52.728H24.859V64.12ZM50.843 90.104H39.451V78.712H50.843V90.104ZM37.915 90.104H26.395V78.712H37.915V90.104ZM115.867 12.28H104.347V0.759995H115.867V12.28ZM115.867 25.208H104.347V13.816H115.867V25.208ZM115.867 38.264H104.347V26.744H115.867V38.264ZM115.867 51.192H104.347V39.8H115.867V51.192ZM129.051 12.28H117.531V0.759995H129.051V12.28ZM190.146 38.264H178.754V26.744H190.146V38.264ZM203.074 51.192H191.682V39.8H203.074V51.192ZM177.218 38.264H165.698V26.744H177.218V38.264ZM190.146 51.192H178.754V39.8H190.146V51.192ZM203.074 64.12H191.682V52.728H203.074V64.12ZM164.162 38.264H152.77V26.744H164.162V38.264ZM190.146 64.12H178.754V52.728H190.146V64.12ZM164.162 51.192H152.77V39.8H164.162V51.192ZM177.218 64.12H165.698V52.728H177.218V64.12ZM203.074 90.104H191.682V78.712H203.074V90.104ZM151.234 51.192H139.714V39.8H151.234V51.192ZM164.162 64.12H152.77V52.728H164.162V64.12ZM190.146 90.104H178.754V78.712H190.146V90.104ZM164.162 77.176H152.77V65.656H164.162V77.176ZM177.218 90.104H165.698V78.712H177.218V90.104ZM151.234 64.12H139.714V52.728H151.234V64.12ZM151.234 77.176H139.714V65.656H151.234V77.176ZM164.162 90.104H152.77V78.712H164.162V90.104ZM237.319 12.28H225.927V0.759995H237.319V12.28ZM224.391 12.28H212.871V0.759995H224.391V12.28ZM237.319 25.208H225.927V13.816H237.319V25.208ZM224.391 25.208H212.871V13.816H224.391V25.208ZM237.319 38.264H225.927V26.744H237.319V38.264ZM224.391 38.264H212.871V26.744H224.391V38.264ZM237.319 51.192H225.927V39.8H237.319V51.192ZM224.391 51.192H212.871V39.8H224.391V51.192ZM237.319 64.12H225.927V52.728H237.319V64.12ZM237.319 77.176H225.927V65.656H237.319V77.176ZM224.391 64.12H212.871V52.728H224.391V64.12ZM224.391 77.176H212.871V65.656H224.391V77.176ZM237.319 90.104H225.927V78.712H237.319V90.104ZM224.391 90.104H212.871V78.712H224.391V90.104ZM298.609 38.264H287.217V26.744H298.609V38.264ZM285.681 38.264H274.161V26.744H285.681V38.264ZM272.625 38.264H261.233V26.744H272.625V38.264ZM272.625 51.192H261.233V39.8H272.625V51.192ZM259.697 51.192H248.177V39.8H259.697V51.192ZM272.625 64.12H261.233V52.728H272.625V64.12ZM298.609 90.104H287.217V78.712H298.609V90.104ZM272.625 77.176H261.233V65.656H272.625V77.176ZM285.681 90.104H274.161V78.712H285.681V90.104ZM259.697 64.12H248.177V52.728H259.697V64.12ZM259.697 77.176H248.177V65.656H259.697V77.176ZM272.625 90.104H261.233V78.712H272.625V90.104ZM358.04 38.264H346.648V26.744H358.04V38.264ZM370.968 51.192H359.576V39.8H370.968V51.192ZM345.112 38.264H333.592V26.744H345.112V38.264ZM358.04 51.192H346.648V39.8H358.04V51.192ZM370.968 64.12H359.576V52.728H370.968V64.12ZM332.056 38.264H320.664V26.744H332.056V38.264ZM370.968 77.176H359.576V65.656H370.968V77.176ZM358.04 64.12H346.648V52.728H358.04V64.12ZM332.056 51.192H320.664V39.8H332.056V51.192ZM358.04 77.176H346.648V65.656H358.04V77.176ZM319.128 51.192H307.608V39.8H319.128V51.192ZM332.056 64.12H320.664V52.728H332.056V64.12ZM358.04 90.104H346.648V78.712H358.04V90.104ZM332.056 77.176H320.664V65.656H332.056V77.176ZM345.112 90.104H333.592V78.712H345.112V90.104ZM319.128 64.12H307.608V52.728H319.128V64.12ZM319.128 77.176H307.608V65.656H319.128V77.176ZM332.056 90.104H320.664V78.712H332.056V90.104ZM470.633 38.264H459.241V26.744H470.633V38.264ZM483.689 51.192H472.169V39.8H483.689V51.192ZM457.705 38.264H446.185V26.744H457.705V38.264ZM470.633 51.192H459.241V39.8H470.633V51.192ZM483.689 64.12H472.169V52.728H483.689V64.12ZM483.689 77.176H472.169V65.656H483.689V77.176ZM444.649 38.264H433.257V26.744H444.649V38.264ZM470.633 64.12H459.241V52.728H470.633V64.12ZM470.633 77.176H459.241V65.656H470.633V77.176ZM483.689 90.104H472.169V78.712H483.689V90.104ZM444.649 51.192H433.257V39.8H444.649V51.192ZM418.793 38.264H407.273V26.744H418.793V38.264ZM470.633 90.104H459.241V78.712H470.633V90.104ZM431.721 51.192H420.329V39.8H431.721V51.192ZM444.649 64.12H433.257V52.728H444.649V64.12ZM405.737 38.264H394.345V26.744H405.737V38.264ZM444.649 77.176H433.257V65.656H444.649V77.176ZM431.721 64.12H420.329V52.728H431.721V64.12ZM392.809 38.264H381.289V26.744H392.809V38.264ZM405.737 51.192H394.345V39.8H405.737V51.192ZM431.721 77.176H420.329V65.656H431.721V77.176ZM444.649 90.104H433.257V78.712H444.649V90.104ZM392.809 51.192H381.289V39.8H392.809V51.192ZM405.737 64.12H394.345V52.728H405.737V64.12ZM431.721 90.104H420.329V78.712H431.721V90.104ZM405.737 77.176H394.345V65.656H405.737V77.176ZM392.809 64.12H381.289V52.728H392.809V64.12ZM392.809 77.176H381.289V65.656H392.809V77.176ZM405.737 90.104H394.345V78.712H405.737V90.104ZM392.809 90.104H381.289V78.712H392.809V90.104ZM545.551 38.264H534.159V26.744H545.551V38.264ZM558.479 51.192H547.087V39.8H558.479V51.192ZM532.623 38.264H521.103V26.744H532.623V38.264ZM545.551 51.192H534.159V39.8H545.551V51.192ZM558.479 64.12H547.087V52.728H558.479V64.12ZM519.567 38.264H508.175V26.744H519.567V38.264ZM545.551 64.12H534.159V52.728H545.551V64.12ZM519.567 51.192H508.175V39.8H519.567V51.192ZM532.623 64.12H521.103V52.728H532.623V64.12ZM558.479 90.104H547.087V78.712H558.479V90.104ZM506.639 51.192H495.119V39.8H506.639V51.192ZM519.567 64.12H508.175V52.728H519.567V64.12ZM545.551 90.104H534.159V78.712H545.551V90.104ZM519.567 77.176H508.175V65.656H519.567V77.176ZM532.623 90.104H521.103V78.712H532.623V90.104ZM506.639 64.12H495.119V52.728H506.639V64.12ZM506.639 77.176H495.119V65.656H506.639V77.176ZM519.567 90.104H508.175V78.712H519.567V90.104ZM654.567 38.264H643.175V26.744H654.567V38.264ZM628.711 25.208H617.191V13.816H628.711V25.208ZM641.639 38.264H630.247V26.744H641.639V38.264ZM615.655 25.208H604.263V13.816H615.655V25.208ZM628.711 38.264H617.191V26.744H628.711V38.264ZM615.655 38.264H604.263V26.744H615.655V38.264ZM628.711 51.192H617.191V39.8H628.711V51.192ZM602.727 38.264H591.207V26.744H602.727V38.264ZM615.655 51.192H604.263V39.8H615.655V51.192ZM628.711 64.12H617.191V52.728H628.711V64.12ZM654.567 90.104H643.175V78.712H654.567V90.104ZM628.711 77.176H617.191V65.656H628.711V77.176ZM615.655 64.12H604.263V52.728H615.655V64.12ZM641.639 90.104H630.247V78.712H641.639V90.104ZM615.655 77.176H604.263V65.656H615.655V77.176ZM628.711 90.104H617.191V78.712H628.711V90.104ZM715.07 38.264H703.678V26.744H715.07V38.264ZM727.998 51.192H716.606V39.8H727.998V51.192ZM702.142 38.264H690.622V26.744H702.142V38.264ZM715.07 51.192H703.678V39.8H715.07V51.192ZM727.998 64.12H716.606V52.728H727.998V64.12ZM689.086 38.264H677.694V26.744H689.086V38.264ZM727.998 77.176H716.606V65.656H727.998V77.176ZM715.07 64.12H703.678V52.728H715.07V64.12ZM689.086 51.192H677.694V39.8H689.086V51.192ZM715.07 77.176H703.678V65.656H715.07V77.176ZM676.158 51.192H664.638V39.8H676.158V51.192ZM689.086 64.12H677.694V52.728H689.086V64.12ZM715.07 90.104H703.678V78.712H715.07V90.104ZM689.086 77.176H677.694V65.656H689.086V77.176ZM702.142 90.104H690.622V78.712H702.142V90.104ZM676.158 64.12H664.638V52.728H676.158V64.12ZM676.158 77.176H664.638V65.656H676.158V77.176ZM689.086 90.104H677.694V78.712H689.086V90.104ZM812.834 12.28H801.314V0.759995H812.834V12.28ZM825.762 25.208H814.37V13.816H825.762V25.208ZM799.778 12.28H788.386V0.759995H799.778V12.28ZM812.834 25.208H801.314V13.816H812.834V25.208ZM825.762 38.264H814.37V26.744H825.762V38.264ZM786.85 12.28H775.458V0.759995H786.85V12.28ZM812.834 38.264H801.314V26.744H812.834V38.264ZM825.762 51.192H814.37V39.8H825.762V51.192ZM812.834 51.192H801.314V39.8H812.834V51.192ZM825.762 64.12H814.37V52.728H825.762V64.12ZM773.922 25.208H762.402V13.816H773.922V25.208ZM825.762 77.176H814.37V65.656H825.762V77.176ZM799.778 64.248H788.386V52.856H799.778V64.248ZM812.834 64.12H801.314V52.728H812.834V64.12ZM773.922 38.264H762.402V26.744H773.922V38.264ZM812.834 77.176H801.314V65.656H812.834V77.176ZM825.762 90.104H814.37V78.712H825.762V90.104ZM786.85 64.248H775.458V52.856H786.85V64.248ZM773.922 51.192H762.402V39.8H773.922V51.192ZM812.834 90.104H801.314V78.712H812.834V90.104ZM773.922 64.12H762.402V52.728H773.922V64.12ZM773.922 77.176H762.402V65.656H773.922V77.176ZM773.922 90.104H762.402V78.712H773.922V90.104ZM799.778 25.08H788.386V13.688H799.778V25.08ZM786.85 25.08H775.458V13.688H786.85V25.08ZM886.738 38.264H875.346V26.744H886.738V38.264ZM899.666 51.192H888.274V39.8H899.666V51.192ZM873.81 38.264H862.29V26.744H873.81V38.264ZM886.738 51.192H875.346V39.8H886.738V51.192ZM899.666 64.12H888.274V52.728H899.666V64.12ZM860.754 38.264H849.362V26.744H860.754V38.264ZM899.666 77.176H888.274V65.656H899.666V77.176ZM886.738 64.12H875.346V52.728H886.738V64.12ZM847.826 38.264H836.306V26.744H847.826V38.264ZM860.754 51.192H849.362V39.8H860.754V51.192ZM886.738 77.176H875.346V65.656H886.738V77.176ZM899.666 90.104H888.274V78.712H899.666V90.104ZM847.826 51.192H836.306V39.8H847.826V51.192ZM860.754 64.12H849.362V52.728H860.754V64.12ZM886.738 90.104H875.346V78.712H886.738V90.104ZM860.754 77.176H849.362V65.656H860.754V77.176ZM847.826 64.12H836.306V52.728H847.826V64.12ZM847.826 77.176H836.306V65.656H847.826V77.176ZM860.754 90.104H849.362V78.712H860.754V90.104ZM847.826 90.104H836.306V78.712H847.826V90.104ZM934.685 12.28H923.293V0.759995H934.685V12.28ZM921.757 12.28H910.237V0.759995H921.757V12.28ZM934.685 38.264H923.293V26.744H934.685V38.264ZM921.757 38.264H910.237V26.744H921.757V38.264ZM934.685 51.192H923.293V39.8H934.685V51.192ZM921.757 51.192H910.237V39.8H921.757V51.192ZM934.685 64.12H923.293V52.728H934.685V64.12ZM934.685 77.176H923.293V65.656H934.685V77.176ZM921.757 64.12H910.237V52.728H921.757V64.12ZM921.757 77.176H910.237V65.656H921.757V77.176ZM934.685 90.104H923.293V78.712H934.685V90.104ZM921.757 90.104H910.237V78.712H921.757V90.104ZM1034.39 38.264H1022.99V26.744H1034.39V38.264ZM1047.44 51.192H1035.92V39.8H1047.44V51.192ZM1021.46 38.264H1009.94V26.744H1021.46V38.264ZM1034.39 51.192H1022.99V39.8H1034.39V51.192ZM1047.44 64.12H1035.92V52.728H1047.44V64.12ZM1047.44 77.176H1035.92V65.656H1047.44V77.176ZM1008.4 38.264H997.011V26.744H1008.4V38.264ZM1034.39 64.12H1022.99V52.728H1034.39V64.12ZM1034.39 77.176H1022.99V65.656H1034.39V77.176ZM1047.44 90.104H1035.92V78.712H1047.44V90.104ZM1008.4 51.192H997.011V39.8H1008.4V51.192ZM982.547 38.264H971.027V26.744H982.547V38.264ZM1034.39 90.104H1022.99V78.712H1034.39V90.104ZM995.475 51.192H984.083V39.8H995.475V51.192ZM1008.4 64.12H997.011V52.728H1008.4V64.12ZM969.491 38.264H958.099V26.744H969.491V38.264ZM1008.4 77.176H997.011V65.656H1008.4V77.176ZM995.475 64.12H984.083V52.728H995.475V64.12ZM956.563 38.264H945.043V26.744H956.563V38.264ZM969.491 51.192H958.099V39.8H969.491V51.192ZM995.475 77.176H984.083V65.656H995.475V77.176ZM1008.4 90.104H997.011V78.712H1008.4V90.104ZM956.563 51.192H945.043V39.8H956.563V51.192ZM969.491 64.12H958.099V52.728H969.491V64.12ZM995.475 90.104H984.083V78.712H995.475V90.104ZM969.491 77.176H958.099V65.656H969.491V77.176ZM956.563 64.12H945.043V52.728H956.563V64.12ZM956.563 77.176H945.043V65.656H956.563V77.176ZM969.491 90.104H958.099V78.712H969.491V90.104ZM956.563 90.104H945.043V78.712H956.563V90.104ZM1108.28 38.264H1096.89V26.744H1108.28V38.264ZM1121.21 51.192H1109.82V39.8H1121.21V51.192ZM1095.35 38.264H1083.83V26.744H1095.35V38.264ZM1108.28 51.192H1096.89V39.8H1108.28V51.192ZM1121.21 64.12H1109.82V52.728H1121.21V64.12ZM1082.3 38.264H1070.9V26.744H1082.3V38.264ZM1121.21 77.176H1109.82V65.656H1121.21V77.176ZM1108.28 64.12H1096.89V52.728H1108.28V64.12ZM1095.35 64.12H1083.83V52.728H1095.35V64.12ZM1108.28 77.176H1096.89V65.656H1108.28V77.176ZM1121.21 90.104H1109.82V78.712H1121.21V90.104ZM1082.3 64.12H1070.9V52.728H1082.3V64.12ZM1108.28 90.104H1096.89V78.712H1108.28V90.104ZM1082.3 77.176H1070.9V65.656H1082.3V77.176ZM1095.35 90.104H1083.83V78.712H1095.35V90.104ZM1069.37 77.176H1057.85V65.656H1069.37V77.176ZM1082.3 90.104H1070.9V78.712H1082.3V90.104ZM1155.1 12.28H1143.71V0.759995H1155.1V12.28ZM1142.17 12.28H1130.65V0.759995H1142.17V12.28ZM1155.1 25.208H1143.71V13.816H1155.1V25.208ZM1142.17 25.208H1130.65V13.816H1142.17V25.208ZM1155.1 38.264H1143.71V26.744H1155.1V38.264ZM1142.17 38.264H1130.65V26.744H1142.17V38.264ZM1155.1 51.192H1143.71V39.8H1155.1V51.192ZM1142.17 51.192H1130.65V39.8H1142.17V51.192ZM1155.1 64.12H1143.71V52.728H1155.1V64.12ZM1155.1 77.176H1143.71V65.656H1155.1V77.176ZM1142.17 64.12H1130.65V52.728H1142.17V64.12ZM1142.17 77.176H1130.65V65.656H1142.17V77.176ZM1155.1 90.104H1143.71V78.712H1155.1V90.104ZM1142.17 90.104H1130.65V78.712H1142.17V90.104ZM1190.41 12.28H1179.02V0.759995H1190.41V12.28ZM1177.48 12.28H1165.96V0.759995H1177.48V12.28ZM1190.41 38.264H1179.02V26.744H1190.41V38.264ZM1177.48 38.264H1165.96V26.744H1177.48V38.264ZM1190.41 51.192H1179.02V39.8H1190.41V51.192ZM1177.48 51.192H1165.96V39.8H1177.48V51.192ZM1190.41 64.12H1179.02V52.728H1190.41V64.12ZM1190.41 77.176H1179.02V65.656H1190.41V77.176ZM1177.48 64.12H1165.96V52.728H1177.48V64.12ZM1177.48 77.176H1165.96V65.656H1177.48V77.176ZM1190.41 90.104H1179.02V78.712H1190.41V90.104ZM1177.48 90.104H1165.96V78.712H1177.48V90.104ZM1251.2 38.264H1239.81V26.744H1251.2V38.264ZM1264.13 51.192H1252.74V39.8H1264.13V51.192ZM1238.27 38.264H1226.75V26.744H1238.27V38.264ZM1251.2 51.192H1239.81V39.8H1251.2V51.192ZM1264.13 64.12H1252.74V52.728H1264.13V64.12ZM1225.22 38.264H1213.82V26.744H1225.22V38.264ZM1264.13 77.176H1252.74V65.656H1264.13V77.176ZM1251.2 64.12H1239.81V52.728H1251.2V64.12ZM1238.27 64.12H1226.75V52.728H1238.27V64.12ZM1251.2 77.176H1239.81V65.656H1251.2V77.176ZM1264.13 90.104H1252.74V78.712H1264.13V90.104ZM1225.22 64.12H1213.82V52.728H1225.22V64.12ZM1251.2 90.104H1239.81V78.712H1251.2V90.104ZM1225.22 77.176H1213.82V65.656H1225.22V77.176ZM1238.27 90.104H1226.75V78.712H1238.27V90.104ZM1212.29 77.176H1200.77V65.656H1212.29V77.176ZM1225.22 90.104H1213.82V78.712H1225.22V90.104Z" fill="url(#paint0_linear_995_61491)"/>
</g>
<defs>
<filter id="filter0_d_995_61491" x="0.411133" y="0.76001" width="1265.72" height="93.344" filterUnits="userSpaceOnUse" color-interpolation-filters="sRGB">
<feFlood flood-opacity="0" result="BackgroundImageFix"/>
<feColorMatrix in="SourceAlpha" type="matrix" values="0 0 0 0 0 0 0 0 0 0 0 0 0 0 0 0 0 0 127 0" result="hardAlpha"/>
<feOffset dx="2" dy="4"/>
<feComposite in2="hardAlpha" operator="out"/>
<feColorMatrix type="matrix" values="0 0 0 0 0 0 0 0 0 0 0 0 0 0 0 0 0 0 0.15 0"/>
<feBlend mode="normal" in2="BackgroundImageFix" result="effect1_dropShadow_995_61491"/>
<feBlend mode="normal" in="SourceGraphic" in2="effect1_dropShadow_995_61491" result="shape"/>
</filter>
<linearGradient id="paint0_linear_995_61491" x1="632" y1="345" x2="632" y2="-153" gradientUnits="userSpaceOnUse">
<stop offset="0.431317" stop-color="#A4BE00"/>
<stop offset="0.610216" stop-color="#00AD4C"/>
<stop offset="0.778231" stop-color="#00B4D1"/>
</linearGradient>
</defs>
</svg>
